<?xml version="1.0" encoding="utf-8"?>
<!-- Generator: Adobe Illustrator 23.0.1, SVG Export Plug-In . SVG Version: 6.00 Build 0)  -->
<svg version="1.1" id="图层_1" xmlns="http://www.w3.org/2000/svg" xmlns:xlink="http://www.w3.org/1999/xlink" x="0px" y="0px"
	 viewBox="0 0 400 400" style="enable-background:new 0 0 400 400;" xml:space="preserve">
<style type="text/css">
	.st0{fill:#2C3E50;}
	.st1{fill:#FF7272;}
	.st2{fill:#29C287;}
	.st3{fill:#FFC107;}
</style>
<path class="st0" d="M60.2,97.8c31.6-43.1,82.6-71.1,140-71.1c26.3,0,51.3,5.9,73.6,16.4l7.9-18.3c-2.1-1-4.1-1.9-6.2-2.8
	C251.7,12,226.3,6.8,200.2,6.8C174.1,6.8,148.8,12,125,22c-23,9.7-43.7,23.7-61.5,41.4c-7.4,7.4-14.2,15.4-20.3,23.9L60.2,97.8
	L60.2,97.8L60.2,97.8z M291.4,52.6c49.4,30.6,82.4,85.4,82.4,147.7c0,29-7.2,56.4-19.8,80.5l17,10.4c2.7-5.1,5.2-10.3,7.4-15.6
	c10.1-23.8,15.2-49.2,15.2-75.3c0-26.1-5.1-51.4-15.2-75.3c-9.7-23-23.7-43.7-41.4-61.5c-11.4-11.4-24-21.2-37.6-29.4L291.4,52.6
	L291.4,52.6z M343.8,297.7c-31.3,45.9-83.9,76.1-143.5,76.1c-25.7,0-50.1-5.6-72.1-15.7l-7.9,18.2c1.6,0.7,3.1,1.4,4.7,2.1
	c23.8,10.1,49.2,15.2,75.3,15.2c26.1,0,51.4-5.1,75.3-15.2c23-9.7,43.7-23.7,61.5-41.4c8.9-8.9,16.9-18.6,23.8-28.9L343.8,297.7z
	 M110.6,348.8c-50.2-30.4-83.9-85.6-83.9-148.6c0-31.2,8.3-60.5,22.8-85.8l-17-10.4c-3.9,6.8-7.3,13.8-10.4,20.9
	C12,148.8,6.8,174.1,6.8,200.2c0,26.1,5.1,51.4,15.2,75.3c9.7,23,23.7,43.7,41.4,61.5c11.8,11.8,24.9,21.9,39.1,30.2L110.6,348.8
	L110.6,348.8z"/>
<path class="st1" d="M216.9,296.4c-1.5-3-3-5.9-4.7-8.8c-1,7.8-1.5,15.6-1.5,23.4c0,23.7,4.5,46.7,13.3,68.4c1.9-0.3,3.8-0.6,5.6-1
	c-8.6-20.8-13.4-43.6-13.4-67.4C216.3,306.1,216.5,301.3,216.9,296.4L216.9,296.4z M229.8,229.7c2,0.2,4,0.4,6,0.6
	c4.7-9.1,10.1-17.7,16.3-25.8c-1.5-1.1-3-2.3-4.5-3.4C240.8,210,234.8,219.6,229.8,229.7z M253.3,198.3c-0.6-0.7-1.2-1.5-1.8-2.3
	c-0.1,0.2-0.3,0.4-0.4,0.5C251.8,197.2,252.5,197.8,253.3,198.3L253.3,198.3z M264,182.2c-3.1,3.1-6,6.2-8.8,9.5
	c1.2,1.5,2.3,3,3.5,4.5c26.8-31.2,64.3-53.1,106.7-59.7c-0.7-1.8-1.4-3.6-2.1-5.3c-14.2,2.3-28.1,6.3-41.5,12
	C300.2,152.4,280.8,165.5,264,182.2L264,182.2z M213.5,278.8c1.5,2.5,3,5,4.4,7.6c2.5-17.6,7.6-34.7,15.2-50.8c-2-0.2-4-0.4-5.9-0.5
	c-0.8,1.7-1.5,3.4-2.2,5.1C219.7,252.6,215.9,265.5,213.5,278.8L213.5,278.8L213.5,278.8z"/>
<path class="st2" d="M247.6,201.1c1.5,1.2,3,2.3,4.5,3.4c5.4,4,11,7.7,16.8,11.1c-5.5-5.4-10.7-11.2-15.6-17.3
	c-0.7-0.6-1.5-1.1-2.2-1.7c-17.5-13.9-32.3-31-43.4-50.5c-1.8,0.6-3.6,1.2-5.4,1.8c8.1,14.3,18.1,27.4,29.8,39.2
	C237,192.1,242.2,196.7,247.6,201.1L247.6,201.1z M193,129.3c2,4.7,4.1,9.2,6.5,13.7c1.8-0.6,3.6-1.2,5.4-1.8
	c-13.2-24.7-20.7-52.9-20.7-82.8c0-13.7,1.6-26.9,4.5-39.7c-1.9,0.1-3.9,0.2-5.8,0.3c-2.8,12.9-4.3,26-4.3,39.4
	C178.7,83,183.5,106.8,193,129.3z M272,210.9c5.4,5.3,11.1,10.3,17.1,14.9c0.3,0.1,0.5,0.2,0.8,0.3c22.5,9.5,46.3,14.3,70.9,14.3
	c3.9,0,7.8-0.1,11.7-0.4c0.4-1.9,0.8-3.8,1.2-5.7c-4.3,0.3-8.6,0.5-12.9,0.5C328.4,234.9,298.1,226.2,272,210.9z M148.7,222.5
	c6.4,3.8,12.5,8,18.4,12.6c2.3-0.6,4.6-1.2,6.9-1.7c-7-5.8-14.5-11-22.3-15.7C150.7,219.4,149.7,221,148.7,222.5L148.7,222.5z
	 M226.2,303.3c-3.6-8.5-7.8-16.7-12.7-24.6c-7.4-12-16.2-23.2-26.4-33.3c-2.5-2.5-5.2-5-7.8-7.4c-2.3,0.5-4.6,1-6.8,1.5
	c15.9,13.5,29.4,29.7,39.7,48c1.6,2.9,3.2,5.8,4.7,8.8c11.6,23.5,18.1,49.9,18.1,77.8c0,1,0,2.1,0,3.1c1.9-0.4,3.7-0.9,5.6-1.3
	c0-0.6,0-1.2,0-1.8C240.5,349.6,235.7,325.8,226.2,303.3L226.2,303.3z M146.8,215c-5.7-3.2-11.5-6-17.5-8.5
	c-2.6-1.1-5.2-2.1-7.8-3.1c2,2.7,3.9,5.5,5.7,8.3c5.6,2.4,11.1,5.1,16.5,8.1C144.8,218.2,145.8,216.6,146.8,215L146.8,215z
	 M118.1,208.1c-1.9-2.7-4-5.3-6-7.9c-17.3-5.3-35.3-8-53.6-8c-15.2,0-30.1,1.8-44.6,5.5c0,0.8,0,1.7,0,2.5c0,1.1,0,2.2,0,3.3
	c14.3-3.7,29.2-5.7,44.6-5.7C79.3,197.7,99.4,201.3,118.1,208.1L118.1,208.1z M171.1,149.3c1.9-0.3,3.8-0.6,5.8-0.9
	c1.2-8.6,1.9-17.4,1.8-26.1c0-24.6-4.8-48.4-14.3-70.9c-4-9.5-8.8-18.6-14.3-27.2c-1.9,0.5-3.8,1-5.7,1.6
	c18.2,27.8,28.8,60.9,28.8,96.5C173.1,131.4,172.5,140.4,171.1,149.3z M87.9,279.9c10.6-10.2,22.3-19.1,35-26.4
	c0.8-0.8,1.7-1.6,2.5-2.4c3.7-3.7,7.3-7.6,10.7-11.7c-0.8-1.9-1.7-3.8-2.6-5.7c-23.7,29-56.4,50.4-93.8,59.8c1,1.7,2,3.3,3.1,5
	c8.4-2.2,16.7-5,24.7-8.4C74.5,287.1,81.3,283.7,87.9,279.9L87.9,279.9z"/>
<path class="st3" d="M143.8,219.7c-2.1,3.1-4.3,6.2-6.6,9.2c0.4,0.9,0.9,1.8,1.3,2.7c0.5,1,1,2,1.4,3c4.2-5.4,8.2-11,11.8-16.9
	c4.8-7.9,9.1-16.1,12.7-24.6c5.3-12.6,9.2-25.6,11.5-39c-1.9,0.3-3.9,0.6-5.8,0.8c-4.1,21.6-12.1,41.8-23.3,59.9
	C145.8,216.6,144.8,218.2,143.8,219.7L143.8,219.7z M214.6,97.4c0.8,12.7,3,25.2,6.3,37.3c1.7-0.8,3.5-1.6,5.2-2.5
	c-9.8-36-8.1-74.7,5.4-110.1c-1.9-0.4-3.7-0.7-5.6-1c-0.9,2.3-1.7,4.7-2.5,7.1C216,50.5,213,73.8,214.6,97.4L214.6,97.4L214.6,97.4z
	 M279.9,218.3c-2.7-2.4-5.3-4.8-7.8-7.3c-6.1-6-11.7-12.4-16.8-19.2c-12.4-16.5-21.6-34.8-27.5-54c-1.7,0.8-3.4,1.6-5.1,2.4
	c2.7,8.5,5.9,16.8,9.8,24.8c5.4,11.1,11.8,21.5,19.2,31.2c5.3,6.9,11.1,13.4,17.3,19.5c2.4,2.3,4.8,4.6,7.4,6.8
	c25.3,22.2,56.1,36.8,88.8,42.5c0.7-1.8,1.3-3.5,1.9-5.3c-28.3-4.8-55-16.4-77.8-33.8C285.9,223.4,282.8,220.9,279.9,218.3
	L279.9,218.3z"/>
<path class="st1" d="M226.1,132.2c-1.7,0.9-3.4,1.7-5.2,2.5c-5.2,2.4-10.6,4.6-16,6.5c-11,3.8-22.3,6.5-33.8,8.1
	c-8,1.1-16.1,1.7-24.2,1.7c-40.2,0-79.1-13.7-110.4-38.9c-0.9,1.6-1.8,3.3-2.7,5c32.1,25.5,71.9,39.4,113.1,39.4
	c7.7,0,15.5-0.5,23.2-1.5c10.9-1.4,21.7-3.7,32.1-7.1c1.8-0.6,3.6-1.2,5.4-1.8c4.5-1.6,8.9-3.3,13.2-5.3c0.6-0.2,1.1-0.5,1.7-0.7
	c1.7-0.8,3.4-1.6,5.1-2.4c21.4-10.5,40.3-25,56.2-43.2c9.8-11.2,18.1-23.3,24.8-36.2c-1.5-1.2-3-2.3-4.5-3.5
	c-6.5,12.7-14.7,24.8-24.5,36.1C264.7,108,246.5,122,226.1,132.2L226.1,132.2z M140.6,250.7c-0.6-1.8-1.3-3.5-2-5.2
	c-5.4,2.4-10.6,5.1-15.7,8.1c-12.7,7.3-24.4,16.2-35,26.4c-3.7,3.6-7.2,7.3-10.6,11.1c-7.5,8.5-14.1,17.6-19.8,27.3
	c1.3,1.5,2.6,2.9,3.9,4.4c5.8-10,12.5-19.3,20.1-28C98.1,275.8,118.3,260.9,140.6,250.7z M334.3,274.2
	c-27.8-24.4-62.2-39.6-98.5-43.9c-7.1-0.9-14.3-1.3-21.5-1.3c-13.7,0-27.2,1.5-40.3,4.5c-2.3,0.5-4.6,1.1-6.9,1.7
	c-8,2.1-15.8,4.8-23.4,8c0.7,1.7,1.4,3.5,2,5.2c21.7-9.2,45.1-13.9,68.6-13.9c6.3,0,12.6,0.3,18.9,1c36,3.9,70,18.7,97.5,42.8
	c6.5,5.7,12.6,11.9,18.3,18.6c1-1.7,2.1-3.3,3.1-5C346.5,285.7,340.6,279.8,334.3,274.2L334.3,274.2z"/>
<path class="st3" d="M156.3,299.1c-1.1-17.5-4.7-34.4-10.6-50.7c-0.6-1.8-1.3-3.5-2-5.2c-1.6-3.9-3.3-7.8-5.1-11.6
	c-0.4-0.9-0.9-1.8-1.3-2.7c-3-5.9-6.3-11.7-9.9-17.3c-1.8-2.8-3.7-5.6-5.7-8.3c-7.8-10.6-16.8-20.4-26.8-29.3
	c-20.2-17.7-43.9-30.6-69.3-38c-0.7,1.7-1.3,3.5-1.9,5.2c24.9,7.2,48,19.8,67.5,36.9c7.6,6.7,14.7,14,21,21.9c2.1,2.6,4.1,5.2,6,7.9
	c9.4,13.1,17,27.4,22.5,42.6c5.6,15.5,9.1,31.9,10.2,48.8c1.7,25.4-2.1,50.4-10.8,73.6c1.8,0.6,3.5,1.1,5.3,1.6
	c0.8-2.1,1.5-4.2,2.2-6.3C154.9,346,157.8,322.7,156.3,299.1z"/>
</svg>
